<?xml version="1.0" encoding="utf-8"?>
<!-- Generator: Adobe Illustrator 19.2.1, SVG Export Plug-In . SVG Version: 6.00 Build 0)  -->
<svg version="1.1" id="Calque_1" xmlns="http://www.w3.org/2000/svg" xmlns:xlink="http://www.w3.org/1999/xlink" x="0px" y="0px"
	 viewBox="0 0 236.389 247.222" enable-background="new 0 0 236.389 247.222" xml:space="preserve">
<g>
	<g>
		<g>
			<linearGradient id="SVGID_1_" gradientUnits="userSpaceOnUse" x1="60.0833" y1="192.0844" x2="81.6917" y2="254.8398">
				<stop  offset="0" style="stop-color:#31BEC0"/>
				<stop  offset="0.2396" style="stop-color:#00ABBB"/>
				<stop  offset="0.5221" style="stop-color:#009DB7"/>
				<stop  offset="0.7832" style="stop-color:#0095B5"/>
				<stop  offset="1" style="stop-color:#0092B4"/>
			</linearGradient>
			<path fill="url(#SVGID_1_)" d="M116.858,235.685c-0.445-0.195-0.881-0.408-1.324-0.598c-0.233-0.105-0.46-0.209-0.696-0.314
				c-8.706-3.912-16.97-8.619-24.707-14.047c-1.918-1.352-3.81-2.744-5.669-4.176c-0.271-0.219-0.553-0.436-0.826-0.654
				c-0.385-0.303-0.77-0.598-1.15-0.906c-3.651-2.43-7.529-4.535-11.539-6.398c-0.227-0.104-0.439-0.223-0.666-0.322
				c-2.662-1.211-5.387-2.293-8.186-3.232c-6.557-2.199-13.443-3.627-20.59-4.193c-1.383-0.109-2.779-0.168-4.186-0.215
				c-0.531,0.033-1.057,0.086-1.578,0.16c-3.393,0.502-6.447,1.939-8.955,4.053c-3.932,3.32-6.488,8.217-6.488,13.748
				c0,6.34,2.615,11.682,8.252,15.133c2.059,0.91,4.141,1.768,6.248,2.58c5.801,2.23,11.781,4.08,17.92,5.531
				c10.402,2.467,21.236,3.809,32.379,3.809c3.267,0,6.495-0.154,9.705-0.371c4.146-0.285,8.245-0.725,12.281-1.359
				c0.182-0.027,0.363-0.068,0.549-0.102c0.559-0.09,1.115-0.199,1.674-0.299c1.075-0.186,2.155-0.361,3.22-0.576
				c2.15-0.426,4.282-0.91,6.396-1.432c2.121-0.527,4.221-1.102,6.299-1.729c0.416-0.121,0.838-0.227,1.25-0.354
				c-0.275-0.096-0.553-0.182-0.824-0.281C122.671,238.08,119.741,236.928,116.858,235.685z"/>
			<g>
				<defs>
					<path id="SVGID_2_" d="M116.858,235.685c-0.445-0.195-0.881-0.408-1.324-0.598c-0.233-0.105-0.46-0.209-0.696-0.314
						c-8.706-3.912-16.97-8.619-24.707-14.047c-1.918-1.352-3.81-2.744-5.669-4.176c-0.271-0.219-0.553-0.436-0.826-0.654
						c-0.385-0.303-0.77-0.598-1.15-0.906c-3.651-2.43-7.529-4.535-11.539-6.398c-0.227-0.104-0.439-0.223-0.666-0.322
						c-2.662-1.211-5.387-2.293-8.186-3.232c-6.557-2.199-13.443-3.627-20.59-4.193c-1.383-0.109-2.779-0.168-4.186-0.215
						c-0.531,0.033-1.057,0.086-1.578,0.16c-3.393,0.502-6.447,1.939-8.955,4.053c-3.932,3.32-6.488,8.217-6.488,13.748
						c0,6.34,2.615,11.682,8.252,15.133c2.059,0.91,4.141,1.768,6.248,2.58c5.801,2.23,11.781,4.08,17.92,5.531
						c10.402,2.467,21.236,3.809,32.379,3.809c3.267,0,6.495-0.154,9.705-0.371c4.146-0.285,8.245-0.725,12.281-1.359
						c0.182-0.027,0.363-0.068,0.549-0.102c0.559-0.09,1.115-0.199,1.674-0.299c1.075-0.186,2.155-0.361,3.22-0.576
						c2.15-0.426,4.282-0.91,6.396-1.432c2.121-0.527,4.221-1.102,6.299-1.729c0.416-0.121,0.838-0.227,1.25-0.354
						c-0.275-0.096-0.553-0.182-0.824-0.281C122.671,238.08,119.741,236.928,116.858,235.685z"/>
				</defs>
				<clipPath id="SVGID_3_">
					<use xlink:href="#SVGID_2_"  overflow="visible"/>
				</clipPath>
				<radialGradient id="SVGID_4_" cx="49.3844" cy="112.2933" r="108.0594" gradientUnits="userSpaceOnUse">
					<stop  offset="0" style="stop-color:#0092B4"/>
					<stop  offset="1" style="stop-color:#0092B4;stop-opacity:0"/>
				</radialGradient>
				<rect x="-60.417" y="6.005" clip-path="url(#SVGID_3_)" fill="url(#SVGID_4_)" width="219.603" height="212.577"/>
			</g>
		</g>
		<g>
			<linearGradient id="SVGID_5_" gradientUnits="userSpaceOnUse" x1="81.6531" y1="127.3182" x2="95.7259" y2="54.92">
				<stop  offset="0" style="stop-color:#31BEC0"/>
				<stop  offset="0.0768" style="stop-color:#1BBDC1"/>
				<stop  offset="0.4199" style="stop-color:#00B6C3"/>
				<stop  offset="0.7368" style="stop-color:#00B3C4"/>
				<stop  offset="1" style="stop-color:#00B2C4"/>
			</linearGradient>
			<path fill="url(#SVGID_5_)" d="M69.758,84.015c0,1.614,0.096,3.21,0.25,4.784c0.34,3.527,1.084,6.934,2.145,10.203
				c0.326,0.997,0.693,1.977,1.084,2.947c1.088,1.99,2.082,4.039,2.972,6.148c2.525,5.985,4.207,12.401,4.896,19.113
				c0.708-0.943,1.407-1.896,2.169-2.794c0.996-1.333,1.977-2.685,3.047-3.958c6.112-7.287,13.397-13.545,21.502-18.609
				c-7.854-2.213-14.758-6.871-19.765-13.146c-1.937-2.421-3.569-5.092-4.88-7.943c-1.564-3.406-2.681-7.065-3.198-10.938
				c-0.254-1.932-0.375-3.564-0.375-5.138c0-4.362,0.766-8.557,2.112-12.488C74.294,60.731,69.758,71.845,69.758,84.015z"/>
			<g>
				<defs>
					<path id="SVGID_6_" d="M69.758,84.015c0,1.614,0.096,3.21,0.25,4.784c0.34,3.527,1.084,6.934,2.145,10.203
						c0.326,0.997,0.693,1.977,1.084,2.947c1.088,1.99,2.082,4.039,2.972,6.148c2.525,5.985,4.207,12.401,4.896,19.113
						c0.708-0.943,1.407-1.896,2.169-2.794c0.996-1.333,1.977-2.685,3.047-3.958c6.112-7.287,13.397-13.545,21.502-18.609
						c-7.854-2.213-14.758-6.871-19.765-13.146c-1.937-2.421-3.569-5.092-4.88-7.943c-1.564-3.406-2.681-7.065-3.198-10.938
						c-0.254-1.932-0.375-3.564-0.375-5.138c0-4.362,0.766-8.557,2.112-12.488C74.294,60.731,69.758,71.845,69.758,84.015z"/>
				</defs>
				<clipPath id="SVGID_7_">
					<use xlink:href="#SVGID_6_"  overflow="visible"/>
				</clipPath>
				<radialGradient id="SVGID_8_" cx="49.3844" cy="112.2933" r="108.0594" gradientUnits="userSpaceOnUse">
					<stop  offset="0" style="stop-color:#0092B4"/>
					<stop  offset="1" style="stop-color:#0092B4;stop-opacity:0"/>
				</radialGradient>
				<rect x="-60.417" y="6.005" clip-path="url(#SVGID_7_)" fill="url(#SVGID_8_)" width="219.603" height="212.577"/>
				<radialGradient id="SVGID_9_" cx="49.3844" cy="112.2933" r="108.0594" gradientUnits="userSpaceOnUse">
					<stop  offset="0" style="stop-color:#0092B4"/>
					<stop  offset="1" style="stop-color:#0092B4;stop-opacity:0"/>
				</radialGradient>
				<rect x="-60.417" y="6.005" clip-path="url(#SVGID_7_)" fill="url(#SVGID_9_)" width="219.603" height="212.577"/>
			</g>
		</g>
		<g>
			<linearGradient id="SVGID_10_" gradientUnits="userSpaceOnUse" x1="101.4323" y1="88.5735" x2="134.9963" y2="40.6391">
				<stop  offset="0" style="stop-color:#00B2C4"/>
				<stop  offset="1" style="stop-color:#00B2C4"/>
			</linearGradient>
			<path fill="url(#SVGID_10_)" d="M121.59,35.579c-1.07-0.073-2.135-0.164-3.219-0.164c-1.238,0-2.449,0.096-3.665,0.186
				c-14.725,1.756-25.814,14.248-25.814,29.085c0,1.329,0.127,2.63,0.295,3.913c0.412,3.079,1.389,5.949,2.666,8.634
				c1.439,2.993,3.349,5.677,5.651,7.999c5.343,5.387,12.667,8.77,20.709,8.77c2.879,0,5.75-0.426,8.52-1.266
				c0.652-0.285,1.723-0.662,2.793-1.038l0.586-0.204c2.721-1.184,5.205-2.844,7.422-4.811c2.436-2.168,4.504-4.744,6.117-7.637
				c1.451-2.594,2.566-5.404,3.188-8.402c0.473-2.285,0.695-4.181,0.695-5.958C147.534,49.78,136.383,37.274,121.59,35.579z"/>
			<g>
				<defs>
					<path id="SVGID_11_" d="M121.59,35.579c-1.07-0.073-2.135-0.164-3.219-0.164c-1.238,0-2.449,0.096-3.665,0.186
						c-14.725,1.756-25.814,14.248-25.814,29.085c0,1.329,0.127,2.63,0.295,3.913c0.412,3.079,1.389,5.949,2.666,8.634
						c1.439,2.993,3.349,5.677,5.651,7.999c5.343,5.387,12.667,8.77,20.709,8.77c2.879,0,5.75-0.426,8.52-1.266
						c0.652-0.285,1.723-0.662,2.793-1.038l0.586-0.204c2.721-1.184,5.205-2.844,7.422-4.811c2.436-2.168,4.504-4.744,6.117-7.637
						c1.451-2.594,2.566-5.404,3.188-8.402c0.473-2.285,0.695-4.181,0.695-5.958C147.534,49.78,136.383,37.274,121.59,35.579z"/>
				</defs>
				<clipPath id="SVGID_12_">
					<use xlink:href="#SVGID_11_"  overflow="visible"/>
				</clipPath>
				<radialGradient id="SVGID_13_" cx="49.3844" cy="112.2933" r="108.0594" gradientUnits="userSpaceOnUse">
					<stop  offset="0" style="stop-color:#0092B4"/>
					<stop  offset="1" style="stop-color:#0092B4;stop-opacity:0"/>
				</radialGradient>
				<rect x="-60.417" y="6.005" clip-path="url(#SVGID_12_)" fill="url(#SVGID_13_)" width="219.603" height="212.577"/>
			</g>
		</g>
		<g>
			<linearGradient id="SVGID_14_" gradientUnits="userSpaceOnUse" x1="118.2975" y1="213.9705" x2="118.2975" y2="98.1004">
				<stop  offset="0" style="stop-color:#31BEC0"/>
				<stop  offset="0.0768" style="stop-color:#1BBDC1"/>
				<stop  offset="0.4199" style="stop-color:#00B6C3"/>
				<stop  offset="0.7368" style="stop-color:#00B3C4"/>
				<stop  offset="1" style="stop-color:#00B2C4"/>
			</linearGradient>
			<path fill="url(#SVGID_14_)" d="M140.006,105.505c1.438-2.676,3.195-5.146,5.191-7.404c-7.754,0.997-15.172,3.051-22.084,6.084
				c-11.331,4.971-21.3,12.452-29.232,21.744c-1.206,1.418-2.337,2.896-3.446,4.393c-0.744,1.003-1.529,1.973-2.227,3.012
				c-2.12,3.146-3.946,6.493-5.616,9.93c-1.319,2.726-2.493,5.528-3.509,8.412c-0.102,0.371-0.182,0.748-0.291,1.12
				c-0.399,1.392-0.871,2.757-1.356,4.108c-1.905,6.893-3.007,14.111-3.007,21.599c0,0.975,0.107,1.922,0.145,2.889
				c0.035,1.061,0.082,2.113,0.158,3.16c0.051,0.666,0.037,1.352,0.104,2.014c0.881,6.406,3.774,12.166,8.037,16.627
				c1.615,1.438,3.27,2.834,4.954,4.195c0.141,0.094,0.289,0.182,0.43,0.275c0.939,0.613,1.924,1.162,2.934,1.67l9.117,2.848
				c0.24,0.035,0.48,0.08,0.721,0.113c0.104,0.059,0.227,0.104,0.336,0.158c2.989,0.652,6.06,1.057,9.184,1.279
				c1.568,0.113,3.129,0.24,4.73,0.24c5.192,0,10.216-0.668,15.067-1.811c3.938-0.934,7.736-2.189,11.373-3.795
				c2.617-1.156,5.119-2.508,7.545-3.98c0.799-0.576,1.57-1.189,2.309-1.838c6.475-5.676,10.592-13.979,10.592-23.242
				c0-9.968-4.76-18.829-12.105-24.487l-0.178-0.295c-4.824-3.932-8.715-8.955-11.246-14.724c-0.199-0.467-0.381-0.942-0.57-1.424
				c-1.115-2.861-1.904-5.881-2.33-9.023c-0.233-1.732-0.395-3.491-0.395-5.287c0-3.401,0.475-6.685,1.291-9.835
				C137.426,111.169,138.542,108.229,140.006,105.505z"/>
			<g>
				<defs>
					<path id="SVGID_15_" d="M140.006,105.505c1.438-2.676,3.195-5.146,5.191-7.404c-7.754,0.997-15.172,3.051-22.084,6.084
						c-11.331,4.971-21.3,12.452-29.232,21.744c-1.206,1.418-2.337,2.896-3.446,4.393c-0.744,1.003-1.529,1.973-2.227,3.012
						c-2.12,3.146-3.946,6.493-5.616,9.93c-1.319,2.726-2.493,5.528-3.509,8.412c-0.102,0.371-0.182,0.748-0.291,1.12
						c-0.399,1.392-0.871,2.757-1.356,4.108c-1.905,6.893-3.007,14.111-3.007,21.599c0,0.975,0.107,1.922,0.145,2.889
						c0.035,1.061,0.082,2.113,0.158,3.16c0.051,0.666,0.037,1.352,0.104,2.014c0.881,6.406,3.774,12.166,8.037,16.627
						c1.615,1.438,3.27,2.834,4.954,4.195c0.141,0.094,0.289,0.182,0.43,0.275c0.939,0.613,1.924,1.162,2.934,1.67l9.117,2.848
						c0.24,0.035,0.48,0.08,0.721,0.113c0.104,0.059,0.227,0.104,0.336,0.158c2.989,0.652,6.06,1.057,9.184,1.279
						c1.568,0.113,3.129,0.24,4.73,0.24c5.192,0,10.216-0.668,15.067-1.811c3.938-0.934,7.736-2.189,11.373-3.795
						c2.617-1.156,5.119-2.508,7.545-3.98c0.799-0.576,1.57-1.189,2.309-1.838c6.475-5.676,10.592-13.979,10.592-23.242
						c0-9.968-4.76-18.829-12.105-24.487l-0.178-0.295c-4.824-3.932-8.715-8.955-11.246-14.724c-0.199-0.467-0.381-0.942-0.57-1.424
						c-1.115-2.861-1.904-5.881-2.33-9.023c-0.233-1.732-0.395-3.491-0.395-5.287c0-3.401,0.475-6.685,1.291-9.835
						C137.426,111.169,138.542,108.229,140.006,105.505z"/>
				</defs>
				<clipPath id="SVGID_16_">
					<use xlink:href="#SVGID_15_"  overflow="visible"/>
				</clipPath>
				<radialGradient id="SVGID_17_" cx="49.3844" cy="112.2933" r="108.0594" gradientUnits="userSpaceOnUse">
					<stop  offset="0" style="stop-color:#0092B4"/>
					<stop  offset="1" style="stop-color:#0092B4;stop-opacity:0"/>
				</radialGradient>
				<rect x="-60.417" y="6.005" clip-path="url(#SVGID_16_)" fill="url(#SVGID_17_)" width="219.603" height="212.577"/>
			</g>
		</g>
		<g>
			<linearGradient id="SVGID_18_" gradientUnits="userSpaceOnUse" x1="161.6354" y1="205.6491" x2="168.0657" y2="242.1176">
				<stop  offset="0" style="stop-color:#31BEC0"/>
				<stop  offset="0.2396" style="stop-color:#00ABBB"/>
				<stop  offset="0.5221" style="stop-color:#009DB7"/>
				<stop  offset="0.7832" style="stop-color:#0095B5"/>
				<stop  offset="1" style="stop-color:#0092B4"/>
			</linearGradient>
			<path fill="url(#SVGID_18_)" d="M201.253,200.512C201.19,200.58,201.221,200.543,201.253,200.512
				C201.221,200.543,201.19,200.58,201.253,200.512c-0.23-0.004-0.463-0.031-0.693-0.037c-0.604-0.014-1.188-0.09-1.795-0.09
				c-3.818,0-7.547,0.326-11.238,0.793c-3.99,0.514-7.875,1.303-11.68,2.326c-7.17,1.928-13.957,4.775-20.287,8.33l-3.002,1.416
				c-2.285,1.438-4.666,2.711-7.223,3.672c-5.623,2.471-11.609,4.223-17.844,5.252c-3.982,0.656-8.045,1.082-12.212,1.082
				c-1.121,0-2.209-0.117-3.316-0.166c3.416,1.754,6.903,3.391,10.472,4.865c3.02,1.25,6.1,2.381,9.219,3.424
				c2.199,0.729,4.422,1.41,6.666,2.035c0.824,0.23,1.633,0.484,2.457,0.703c4.934,1.273,9.976,2.268,15.092,3.002
				c1.156,0.168,2.316,0.309,3.477,0.443c5.465,0.648,11.01,1.021,16.639,1.021c1.336,0,2.656-0.064,3.98-0.105
				c7.373-0.203,14.602-0.979,21.652-2.281c0.244-0.045,0.484-0.086,0.734-0.131c8.018-1.781,14.043-8.924,14.043-17.477
				c0-5.518-2.562-10.4-6.502-13.689C207.37,202.793,204.667,200.974,201.253,200.512z"/>
			<g>
				<defs>
					<path id="SVGID_19_" d="M201.253,200.512C201.19,200.58,201.221,200.543,201.253,200.512
						C201.221,200.543,201.19,200.58,201.253,200.512c-0.23-0.004-0.463-0.031-0.693-0.037c-0.604-0.014-1.188-0.09-1.795-0.09
						c-3.818,0-7.547,0.326-11.238,0.793c-3.99,0.514-7.875,1.303-11.68,2.326c-7.17,1.928-13.957,4.775-20.287,8.33l-3.002,1.416
						c-2.285,1.438-4.666,2.711-7.223,3.672c-5.623,2.471-11.609,4.223-17.844,5.252c-3.982,0.656-8.045,1.082-12.212,1.082
						c-1.121,0-2.209-0.117-3.316-0.166c3.416,1.754,6.903,3.391,10.472,4.865c3.02,1.25,6.1,2.381,9.219,3.424
						c2.199,0.729,4.422,1.41,6.666,2.035c0.824,0.23,1.633,0.484,2.457,0.703c4.934,1.273,9.976,2.268,15.092,3.002
						c1.156,0.168,2.316,0.309,3.477,0.443c5.465,0.648,11.01,1.021,16.639,1.021c1.336,0,2.656-0.064,3.98-0.105
						c7.373-0.203,14.602-0.979,21.652-2.281c0.244-0.045,0.484-0.086,0.734-0.131c8.018-1.781,14.043-8.924,14.043-17.477
						c0-5.518-2.562-10.4-6.502-13.689C207.37,202.793,204.667,200.974,201.253,200.512z"/>
				</defs>
				<clipPath id="SVGID_20_">
					<use xlink:href="#SVGID_19_"  overflow="visible"/>
				</clipPath>
				<radialGradient id="SVGID_21_" cx="49.3844" cy="112.2933" r="108.0594" gradientUnits="userSpaceOnUse">
					<stop  offset="0" style="stop-color:#0092B4"/>
					<stop  offset="1" style="stop-color:#0092B4;stop-opacity:0"/>
				</radialGradient>
				<rect x="-60.417" y="6.005" clip-path="url(#SVGID_20_)" fill="url(#SVGID_21_)" width="219.603" height="212.577"/>
			</g>
		</g>
		<g>
			<linearGradient id="SVGID_22_" gradientUnits="userSpaceOnUse" x1="144.6257" y1="140.8147" x2="175.1198" y2="140.8147">
				<stop  offset="0" style="stop-color:#31BEC0"/>
				<stop  offset="0.0768" style="stop-color:#1BBDC1"/>
				<stop  offset="0.4199" style="stop-color:#00B6C3"/>
				<stop  offset="0.7368" style="stop-color:#00B3C4"/>
				<stop  offset="1" style="stop-color:#00B2C4"/>
			</linearGradient>
			<path fill="url(#SVGID_22_)" d="M175.012,163.415c0.027-0.708,0.107-1.402,0.107-2.113c0-2.439-0.244-4.825-0.598-7.17
				c-1.207-8.012-4.422-15.344-9.074-21.547l-0.371-0.821c-1.828-2.467-3.52-5.038-4.916-7.8c-1.564-3.092-2.828-6.348-3.781-9.748
				c-0.23-0.821-0.449-1.646-0.639-2.485c-0.73-3.179-1.156-6.466-1.297-9.831c-2.078,1.896-3.883,4.076-5.359,6.484
				c-1.611,2.626-2.826,5.506-3.574,8.57c-0.557,2.285-0.885,4.657-0.885,7.11c0,0.259,0.033,0.508,0.037,0.762
				c0.086,3.409,0.748,6.675,1.881,9.713c1.787,4.788,4.807,8.951,8.607,12.233l0.789,0.875c5.102,3.991,9.223,9.174,11.926,15.146
				c2.281,5.047,3.586,10.623,3.586,16.511c0,0.145-0.021,0.285-0.021,0.426C173.538,174.674,174.762,169.164,175.012,163.415z"/>
			<g>
				<defs>
					<path id="SVGID_23_" d="M175.012,163.415c0.027-0.708,0.107-1.402,0.107-2.113c0-2.439-0.244-4.825-0.598-7.17
						c-1.207-8.012-4.422-15.344-9.074-21.547l-0.371-0.821c-1.828-2.467-3.52-5.038-4.916-7.8
						c-1.564-3.092-2.828-6.348-3.781-9.748c-0.23-0.821-0.449-1.646-0.639-2.485c-0.73-3.179-1.156-6.466-1.297-9.831
						c-2.078,1.896-3.883,4.076-5.359,6.484c-1.611,2.626-2.826,5.506-3.574,8.57c-0.557,2.285-0.885,4.657-0.885,7.11
						c0,0.259,0.033,0.508,0.037,0.762c0.086,3.409,0.748,6.675,1.881,9.713c1.787,4.788,4.807,8.951,8.607,12.233l0.789,0.875
						c5.102,3.991,9.223,9.174,11.926,15.146c2.281,5.047,3.586,10.623,3.586,16.511c0,0.145-0.021,0.285-0.021,0.426
						C173.538,174.674,174.762,169.164,175.012,163.415z"/>
				</defs>
				<clipPath id="SVGID_24_">
					<use xlink:href="#SVGID_23_"  overflow="visible"/>
				</clipPath>
				<radialGradient id="SVGID_25_" cx="49.3844" cy="112.2933" r="108.0594" gradientUnits="userSpaceOnUse">
					<stop  offset="0" style="stop-color:#0092B4"/>
					<stop  offset="1" style="stop-color:#0092B4;stop-opacity:0"/>
				</radialGradient>
				<rect x="-60.417" y="6.005" clip-path="url(#SVGID_24_)" fill="url(#SVGID_25_)" width="219.603" height="212.577"/>
			</g>
			<g>
				<defs>
					<path id="SVGID_26_" d="M175.012,163.415c0.027-0.708,0.107-1.402,0.107-2.113c0-2.439-0.244-4.825-0.598-7.17
						c-1.207-8.012-4.422-15.344-9.074-21.547l-0.371-0.821c-1.828-2.467-3.52-5.038-4.916-7.8
						c-1.564-3.092-2.828-6.348-3.781-9.748c-0.23-0.821-0.449-1.646-0.639-2.485c-0.73-3.179-1.156-6.466-1.297-9.831
						c-2.078,1.896-3.883,4.076-5.359,6.484c-1.611,2.626-2.826,5.506-3.574,8.57c-0.557,2.285-0.885,4.657-0.885,7.11
						c0,0.259,0.033,0.508,0.037,0.762c0.086,3.409,0.748,6.675,1.881,9.713c1.787,4.788,4.807,8.951,8.607,12.233l0.789,0.875
						c5.102,3.991,9.223,9.174,11.926,15.146c2.281,5.047,3.586,10.623,3.586,16.511c0,0.145-0.021,0.285-0.021,0.426
						C173.538,174.674,174.762,169.164,175.012,163.415z"/>
				</defs>
				<clipPath id="SVGID_27_">
					<use xlink:href="#SVGID_26_"  overflow="visible"/>
				</clipPath>
				<radialGradient id="SVGID_28_" cx="49.3844" cy="112.2933" r="108.0594" gradientUnits="userSpaceOnUse">
					<stop  offset="0" style="stop-color:#0092B4"/>
					<stop  offset="1" style="stop-color:#0092B4;stop-opacity:0"/>
				</radialGradient>
				<rect x="-60.417" y="6.005" clip-path="url(#SVGID_27_)" fill="url(#SVGID_28_)" width="219.603" height="212.577"/>
			</g>
		</g>
	</g>
	<g>
		<linearGradient id="SVGID_29_" gradientUnits="userSpaceOnUse" x1="118.3464" y1="196.99" x2="118.3464" y2="1.7664">
			<stop  offset="0" style="stop-color:#FADB8A"/>
			<stop  offset="0.0207" style="stop-color:#FAD887"/>
			<stop  offset="0.2419" style="stop-color:#F8B86F"/>
			<stop  offset="0.4561" style="stop-color:#F69F5D"/>
			<stop  offset="0.6588" style="stop-color:#F58E51"/>
			<stop  offset="0.8452" style="stop-color:#F5844A"/>
			<stop  offset="1" style="stop-color:#F58048"/>
		</linearGradient>
		<path fill="url(#SVGID_29_)" d="M216.492,55.45c-2.23-3.459-4.63-6.797-7.2-9.998c-21.407-26.608-54.215-43.686-90.943-43.686
			c-20.591,0-39.938,5.383-56.748,14.778c-6.734,3.764-13.051,8.176-18.883,13.149c-12.012,10.253-21.932,22.881-29.006,37.17
			c-1.529,3.092-2.916,6.262-4.172,9.5c-5.078,13.072-7.898,27.261-7.898,42.106c0,27.302,9.453,52.423,25.215,72.32
			c0.209,0.264,0.414,0.535,0.627,0.795c0.395,0.488,0.783,0.984,1.184,1.469c2.547-0.967,5.273-1.561,8.115-1.719
			c0.518-0.031,1.035-0.082,1.565-0.082c1.478,0,2.926,0.15,4.34,0.381c1.801,0.15,3.568,0.391,5.338,0.641
			c2.598,0.367,5.178,0.797,7.703,1.373c2.154,0.484,4.285,1.012,6.381,1.643c1.664,0.498,3.291,1.109,4.92,1.699
			c-0.354-1.699-0.559-3.451-0.816-5.184c-0.213-1.428-0.49-2.828-0.635-4.279c-0.123-0.975-0.205-1.963-0.254-2.961
			c-0.041-0.703-0.109-1.393-0.109-2.104c0-0.359,0.045-0.703,0.055-1.057c-0.031-0.967-0.145-1.914-0.145-2.889
			c0-0.178,0.021-0.346,0.027-0.518c0.045-8.263,1.264-16.239,3.395-23.839c0.5-1.768,1.049-3.51,1.647-5.232
			c1.243-4.716,1.968-9.636,1.968-14.736c0-7.8-1.568-15.24-4.371-22.043c-1.053-1.881-2.018-3.822-2.857-5.831
			c-0.045-0.104-0.072-0.213-0.117-0.321c-1.31-3.184-2.354-6.503-3.084-9.939c-0.721-3.41-1.105-6.93-1.197-10.525
			c-0.014-0.503-0.082-0.992-0.082-1.501c0-30.294,23.419-55.171,53.093-57.628c0.037-0.005,0.068-0.014,0.104-0.019
			c0.032-0.005,0.063-0.005,0.096-0.005c1.491-0.117,2.998-0.227,4.521-0.23c0.032,0,0.055-0.005,0.086-0.005
			c1.275,0,2.526,0.108,3.782,0.19c0.149,0.018,0.304,0.009,0.453,0.027c0.082,0.009,0.159,0.036,0.24,0.045
			c14.855,1.787,26.876,11.853,31.683,25.266c1.465,4.086,2.29,8.467,2.29,13.028c0,2.426-0.281,4.92-0.884,7.84
			c-0.78,3.759-2.159,7.292-3.95,10.583c-1.007,1.864-2.145,3.65-3.446,5.319c2.336-0.181,4.666-0.358,7.042-0.358
			c0.005,0,0.014,0,0.019,0c0.988,0,1.945,0.118,2.925,0.15c0.453,0.014,0.902,0.045,1.355,0.067
			c1.728,0.082,3.469,0.108,5.169,0.286c-0.276,1.079-0.517,2.168-0.711,3.278c-0.245,1.388-0.432,2.788-0.545,4.217
			c-0.041,0.562-0.059,1.134-0.081,1.7c-0.027,0.621-0.096,1.234-0.096,1.864c0,0.594,0.063,1.169,0.087,1.759
			c0.04,0.998,0.062,2.004,0.167,2.984c0.422,3.999,1.406,7.826,2.811,11.449c1.429,3.682,3.355,7.105,5.646,10.243l0.762,1.278
			c-0.009-0.018-0.022-0.031-0.036-0.049c2.966,3.999,5.477,8.352,7.332,13.055c0.88,2.222,1.601,4.516,2.199,6.865
			c0.458,1.813,0.83,3.664,1.115,5.545c0.418,2.793,0.708,5.627,0.708,8.539c0,0.295-0.041,0.58-0.046,0.879
			c-0.186,12.021-4.09,23.136-10.61,32.286c0.186-0.055,0.372-0.1,0.562-0.145c6.974-1.809,14.229-2.875,21.716-3.084
			c0.875-0.086,1.541,0.146,2.439,0.146c2.829,0,5.555,0.434,8.121,1.242c0.467,0.145,0.92,0.33,1.378,0.502
			c0.399-0.48,0.794-0.975,1.189-1.459c10.025-12.412,17.562-26.904,21.847-42.73c0.009-0.036,0.018-0.068,0.027-0.1
			c1.052-3.895,1.914-7.863,2.562-11.903c0.167-1.065,0.304-2.145,0.448-3.22c0.653-5.001,1.029-10.089,1.029-15.263
			c0-2.64-0.122-5.251-0.295-7.849c-1.351-20.197-7.854-38.997-18.219-55.099C216.524,55.501,216.51,55.473,216.492,55.45z"/>
		<g>
			<defs>
				<path id="SVGID_30_" d="M216.492,55.45c-2.23-3.459-4.63-6.797-7.2-9.998c-21.407-26.608-54.215-43.686-90.943-43.686
					c-20.591,0-39.938,5.383-56.748,14.778c-6.734,3.764-13.051,8.176-18.883,13.149c-12.012,10.253-21.932,22.881-29.006,37.17
					c-1.529,3.092-2.916,6.262-4.172,9.5c-5.078,13.072-7.898,27.261-7.898,42.106c0,27.302,9.453,52.423,25.215,72.32
					c0.209,0.264,0.414,0.535,0.627,0.795c0.395,0.488,0.783,0.984,1.184,1.469c2.547-0.967,5.273-1.561,8.115-1.719
					c0.518-0.031,1.035-0.082,1.565-0.082c1.478,0,2.926,0.15,4.34,0.381c1.801,0.15,3.568,0.391,5.338,0.641
					c2.598,0.367,5.178,0.797,7.703,1.373c2.154,0.484,4.285,1.012,6.381,1.643c1.664,0.498,3.291,1.109,4.92,1.699
					c-0.354-1.699-0.559-3.451-0.816-5.184c-0.213-1.428-0.49-2.828-0.635-4.279c-0.123-0.975-0.205-1.963-0.254-2.961
					c-0.041-0.703-0.109-1.393-0.109-2.104c0-0.359,0.045-0.703,0.055-1.057c-0.031-0.967-0.145-1.914-0.145-2.889
					c0-0.178,0.021-0.346,0.027-0.518c0.045-8.263,1.264-16.239,3.395-23.839c0.5-1.768,1.049-3.51,1.647-5.232
					c1.243-4.716,1.968-9.636,1.968-14.736c0-7.8-1.568-15.24-4.371-22.043c-1.053-1.881-2.018-3.822-2.857-5.831
					c-0.045-0.104-0.072-0.213-0.117-0.321c-1.31-3.184-2.354-6.503-3.084-9.939c-0.721-3.41-1.105-6.93-1.197-10.525
					c-0.014-0.503-0.082-0.992-0.082-1.501c0-30.294,23.419-55.171,53.093-57.628c0.037-0.005,0.068-0.014,0.104-0.019
					c0.032-0.005,0.063-0.005,0.096-0.005c1.491-0.117,2.998-0.227,4.521-0.23c0.032,0,0.055-0.005,0.086-0.005
					c1.275,0,2.526,0.108,3.782,0.19c0.149,0.018,0.304,0.009,0.453,0.027c0.082,0.009,0.159,0.036,0.24,0.045
					c14.855,1.787,26.876,11.853,31.683,25.266c1.465,4.086,2.29,8.467,2.29,13.028c0,2.426-0.281,4.92-0.884,7.84
					c-0.78,3.759-2.159,7.292-3.95,10.583c-1.007,1.864-2.145,3.65-3.446,5.319c2.336-0.181,4.666-0.358,7.042-0.358
					c0.005,0,0.014,0,0.019,0c0.988,0,1.945,0.118,2.925,0.15c0.453,0.014,0.902,0.045,1.355,0.067
					c1.728,0.082,3.469,0.108,5.169,0.286c-0.276,1.079-0.517,2.168-0.711,3.278c-0.245,1.388-0.432,2.788-0.545,4.217
					c-0.041,0.562-0.059,1.134-0.081,1.7c-0.027,0.621-0.096,1.234-0.096,1.864c0,0.594,0.063,1.169,0.087,1.759
					c0.04,0.998,0.062,2.004,0.167,2.984c0.422,3.999,1.406,7.826,2.811,11.449c1.429,3.682,3.355,7.105,5.646,10.243l0.762,1.278
					c-0.009-0.018-0.022-0.031-0.036-0.049c2.966,3.999,5.477,8.352,7.332,13.055c0.88,2.222,1.601,4.516,2.199,6.865
					c0.458,1.813,0.83,3.664,1.115,5.545c0.418,2.793,0.708,5.627,0.708,8.539c0,0.295-0.041,0.58-0.046,0.879
					c-0.186,12.021-4.09,23.136-10.61,32.286c0.186-0.055,0.372-0.1,0.562-0.145c6.974-1.809,14.229-2.875,21.716-3.084
					c0.875-0.086,1.541,0.146,2.439,0.146c2.829,0,5.555,0.434,8.121,1.242c0.467,0.145,0.92,0.33,1.378,0.502
					c0.399-0.48,0.794-0.975,1.189-1.459c10.025-12.412,17.562-26.904,21.847-42.73c0.009-0.036,0.018-0.068,0.027-0.1
					c1.052-3.895,1.914-7.863,2.562-11.903c0.167-1.065,0.304-2.145,0.448-3.22c0.653-5.001,1.029-10.089,1.029-15.263
					c0-2.64-0.122-5.251-0.295-7.849c-1.351-20.197-7.854-38.997-18.219-55.099C216.524,55.501,216.51,55.473,216.492,55.45z"/>
			</defs>
			<clipPath id="SVGID_31_">
				<use xlink:href="#SVGID_30_"  overflow="visible"/>
			</clipPath>
			
				<radialGradient id="SVGID_32_" cx="-67.8029" cy="58.8948" r="178.3978" gradientTransform="matrix(1.0431 0 0 1 282.7424 0)" gradientUnits="userSpaceOnUse">
				<stop  offset="0" style="stop-color:#F3776A"/>
				<stop  offset="1" style="stop-color:#F3776A;stop-opacity:0"/>
			</radialGradient>
			<rect x="35.223" y="-127.988" clip-path="url(#SVGID_31_)" fill="url(#SVGID_32_)" width="353.588" height="373.765"/>
		</g>
	</g>
</g>
</svg>
